{"title":"Maratha Battalion - Marathi - Xvid - DTHRip - MDG@Mastitorrents","uid":5919690,"size":935267422,"categoryP":"video","categoryS":"movies","magnet":"?xt=urn:btih:856ea76ccaafd844819bd71d0ad46d46a5a4985e&amp;dn=Maratha+Battalion+-+Marathi+-+Xvid+-+DTHRip+-+MDG%40Mastitorrents&amp;tr=udp%3A%2F%2Ftracker.openbittorrent.com%3A80&amp;tr=udp%3A%2F%2Fopen.demonii.com%3A1337&amp;tr=udp%3A%2F%2Ftracker.coppersurfer.tk%3A6969&amp;tr=udp%3A%2F%2Fexodus.desync.com%3A6969","seeders":0,"leechers":1,"uploader":"amanrulz","files":1,"time":1288310529,"description":"mastitorrents.com\n &lt;a href=&quot;\nhttp://mastitorrents.com/forums/index.php&quot; rel=&quot;nofollow&quot; target=&quot;_NEW&quot;&gt;\nhttp://mastitorrents.com/forums/index.php&lt;/a&gt;\n\nInfo -\nCast -\nLaxmikant Berde\nKuldeep Pawar\nRamesh Bhatkar\nAlka Kubal\nVijay Chavan\nBharat Jadhav\nDeepa Parab\nSandeep Bansali\nRagvendra Kadkol\nDeepak Shirke.\n\nMedia Info -\nGeneral\nGeneral\nName : Maratha Battalion\nFormat : AVI\nFormat/Info : Audio Video Interleave\nFormat profile : OpenDML\nFile size : 892 MiB\nDuration : 2h 26mn\nOverall bit rate : 852 Kbps\nWriting application : AVI-Mux GUI 1.17.8.3\n\n\nVideo\nID : 0\nFormat : MPEG-4 Visual\nFormat profile : Advanced Simple@L5\nFormat settings, BVOP : Yes\nFormat settings, QPel : No\nFormat settings, GMC : No warppoints\nFormat settings, Matrix : Default (H.263)\nCodec ID : XVID\nCodec ID/Hint : XviD\nDuration : 2h 26mn\nBit rate : 784 Kbps\nWidth : 608 pixels\nHeight : 256 pixels\nDisplay aspect ratio : 2.35:1\nFrame rate : 25.000 fps\nColor space : YUV\nChroma subsampling : 4:2:0\nBit depth : 8 bits\nScan type : Progressive\nBits/(Pixel*Frame) : 0.202\nStream size : 821 MiB (92%)\nWriting library : XviD 1.2.1\n\n\nAudio\nID : 1\nFormat : MPEG Audio\nFormat version : Version 2\nFormat profile : Layer 3\nMode : Joint stereo\nMode extension : MS Stereo\nCodec ID : 55\nCodec ID/Hint : MP3\nDuration : 2h 26mn\nBit rate mode : Constant\nBit rate : 64.0 Kbps\nChannel(s) : 2 channels\nSampling rate : 24.0 KHz\nStream size : 67.0 MiB (8%)\nAlignment : Aligned on interleaves\nInterleave, duration : 898 ms (22.45 video frames)\nInterleave, preload duration : 216 ms\n","torrent":{"xt":"urn:btih:856ea76ccaafd844819bd71d0ad46d46a5a4985e","amp;dn":"Maratha+Battalion+-+Marathi+-+Xvid+-+DTHRip+-+MDG%40Mastitorrents","amp;tr":["udp%3A%2F%2Ftracker.openbittorrent.com%3A80","udp%3A%2F%2Fopen.demonii.com%3A1337","udp%3A%2F%2Ftracker.coppersurfer.tk%3A6969","udp%3A%2F%2Fexodus.desync.com%3A6969"],"infoHash":"856ea76ccaafd844819bd71d0ad46d46a5a4985e","infoHashBuffer":{"type":"Buffer","data":[133,110,167,108,202,175,216,68,129,155,215,29,10,212,109,70,165,164,152,94]},"announce":[],"urlList":[]}}